<svg width="48" height="48" viewBox="0 0 48 48" fill="none" xmlns="http://www.w3.org/2000/svg">
<path d="M24.0312 45.0625C35.6465 45.0625 45.0625 35.6465 45.0625 24.0312C45.0625 12.416 35.6465 3 24.0312 3C12.416 3 3 12.416 3 24.0312C3 35.6465 12.416 45.0625 24.0312 45.0625Z" stroke="#3D7A81" stroke-width="1.7" stroke-miterlimit="10" stroke-linecap="round" stroke-linejoin="round"/>
<path d="M24.0311 39.912C32.8018 39.912 39.9119 32.8019 39.9119 24.0312C39.9119 15.2606 32.8018 8.15051 24.0311 8.15051C15.2604 8.15051 8.15039 15.2606 8.15039 24.0312C8.15039 32.8019 15.2604 39.912 24.0311 39.912Z" stroke="#3D7A81" stroke-width="1.7" stroke-miterlimit="10" stroke-linecap="round" stroke-linejoin="round"/>
<path d="M24.0313 27.0357C25.6907 27.0357 27.0358 25.6905 27.0358 24.0312C27.0358 22.3719 25.6907 21.0267 24.0313 21.0267C22.372 21.0267 21.0269 22.3719 21.0269 24.0312C21.0269 25.6905 22.372 27.0357 24.0313 27.0357Z" stroke="#3D7A81" stroke-width="1.7" stroke-miterlimit="10" stroke-linecap="round" stroke-linejoin="round"/>
<path d="M29.8057 38.8296C29.1284 37.3257 28.7524 35.6586 28.7524 33.9031C28.7524 27.6014 33.6025 22.433 39.7728 21.9265" stroke="#3D7A81" stroke-width="1.7" stroke-miterlimit="10" stroke-linecap="round" stroke-linejoin="round"/>
<path d="M18.2564 38.8296C18.9337 37.3257 19.3097 35.6586 19.3097 33.9031C19.3097 27.6014 14.4596 22.433 8.28931 21.9265" stroke="#3D7A81" stroke-width="1.7" stroke-miterlimit="10" stroke-linecap="round" stroke-linejoin="round"/>
<path d="M38.5523 17.5931H9.51025" stroke="#3D7A81" stroke-width="1.7" stroke-miterlimit="10" stroke-linecap="round" stroke-linejoin="round"/>
</svg>
