<svg width="48" height="48" viewBox="0 0 48 48" fill="none" xmlns="http://www.w3.org/2000/svg">
<path d="M19.0308 24.413L22.5803 27.9625L29.6792 20.8635" stroke="#3D7A81" stroke-width="1.7" stroke-miterlimit="10" stroke-linecap="round" stroke-linejoin="round"/>
<path d="M24.0003 10.925C31.0525 10.925 36.7784 16.6506 36.7784 23.7032C36.7784 30.7556 31.0525 36.4812 24.0003 36.4812C16.9481 36.4812 11.2222 30.7556 11.2222 23.7032C11.2222 16.6506 16.9481 10.925 24.0003 10.925Z" stroke="#3D7A81" stroke-width="1.7" stroke-miterlimit="10" stroke-linecap="round" stroke-linejoin="round"/>
<path d="M20.158 5.647L20.9538 2.62293C21.9483 2.48013 22.9656 2.40625 24 2.40625C25.0343 2.40625 26.0516 2.48013 27.0461 2.62293L27.8419 5.647C30.0873 6.12322 32.1829 7.00832 34.0472 8.22119L36.7518 6.64336C37.5561 7.24559 38.3278 7.9126 39.059 8.64394C39.7902 9.37537 40.4574 10.1469 41.0594 10.9511L39.4821 13.656C40.6945 15.5201 41.5798 17.6157 42.0562 19.8613L45.0803 20.657C45.223 21.6515 45.2969 22.6688 45.2969 23.7031C45.2969 24.7375 45.223 25.7548 45.0803 26.7493L42.0562 27.545C41.5798 29.7908 40.6945 31.8863 39.4821 33.7502L41.0594 36.4552C40.4574 37.2593 39.7902 38.0309 39.059 38.7623C38.3278 39.4937 37.5561 40.1607 36.7518 40.7629L34.0472 39.1851C32.1829 40.3978 30.0873 41.2831 27.8419 41.7593L27.0461 44.7833C26.0516 44.9261 25.0343 45 24 45C22.9656 45 21.9483 44.9261 20.9538 44.7833L20.158 41.7593C17.9126 41.2831 15.817 40.3979 13.9527 39.1851L11.2481 40.7629C10.4438 40.1607 9.67215 39.4937 8.9409 38.7623C8.20974 38.0309 7.54246 37.2593 6.94049 36.4552L8.51779 33.7502C7.30537 31.8863 6.42009 29.7906 5.9437 27.545L2.91963 26.7493C2.777 25.7548 2.70312 24.7375 2.70312 23.7031C2.70312 22.6688 2.777 21.6515 2.91963 20.657L5.9437 19.8613C6.42009 17.6155 7.30537 15.5201 8.51779 13.656L6.94049 10.9511C7.54246 10.1469 8.20974 9.37537 8.9409 8.64394C9.67215 7.9126 10.4438 7.24559 11.2481 6.64336L13.9527 8.22119C15.817 7.00841 17.9126 6.12322 20.158 5.647Z" stroke="#3D7A81" stroke-width="1.7" stroke-miterlimit="10" stroke-linecap="round" stroke-linejoin="round"/>
</svg>
