<svg width="48" height="48" viewBox="0 0 48 48" fill="none" xmlns="http://www.w3.org/2000/svg">
<path d="M26.9444 34.8011C26.6519 37.925 23.8824 40.2203 20.7586 39.9278C17.6347 39.6352 15.3396 36.8657 15.6321 33.7419C15.9246 30.6181 18.694 28.3228 21.8178 28.6154C24.9417 28.9079 27.2369 31.6774 26.9444 34.8011Z" stroke="#3D7A81" stroke-width="1.7" stroke-miterlimit="10" stroke-linecap="round" stroke-linejoin="round"/>
<path d="M47.1245 27.2357V22.6576H41.818C40.3067 22.6576 38.9822 23.6691 38.5845 25.1273L34.5283 40H47.1245V35.5477" stroke="#3D7A81" stroke-width="1.7" stroke-miterlimit="10" stroke-linecap="round" stroke-linejoin="round"/>
<path d="M10.6113 23.7196L13.3056 23.9718" stroke="#3D7A81" stroke-width="1.7" stroke-miterlimit="10" stroke-linecap="round" stroke-linejoin="round"/>
<path d="M23.3044 34.4604C23.2001 35.5742 22.2126 36.3925 21.0989 36.2883C19.985 36.1839 19.1666 35.1966 19.2709 34.0827C19.3753 32.9689 20.3626 32.1504 21.4765 32.2548C22.5903 32.359 23.4087 33.3465 23.3044 34.4604Z" stroke="#3D7A81" stroke-width="1.7" stroke-miterlimit="10" stroke-linecap="round" stroke-linejoin="round"/>
<path d="M36.894 31.3288L35.517 31.1516C33.928 30.9472 32.4772 32.0773 32.2865 33.668L32.2062 34.3377C32.0755 35.4286 32.8697 36.413 33.9639 36.5157L35.4416 36.6544L36.894 31.3288Z" stroke="#3D7A81" stroke-width="1.7" stroke-miterlimit="10" stroke-linecap="round" stroke-linejoin="round"/>
<path d="M37.7041 28.3591L35.441 36.6541L26.755 35.8197C26.8478 35.4925 26.9116 35.1522 26.9444 34.8016C27.237 31.6769 24.9419 28.9075 21.8183 28.615C18.6936 28.3225 15.9241 30.6184 15.6317 33.7422C15.5998 34.0844 15.5988 34.4219 15.626 34.7528L4.41919 33.6471L6.65297 20.2388L6.65316 9.42352C6.65316 9.42352 8.4766 9.54446 10.3282 9.82374C12.8576 10.2062 15.4123 11.5937 17.5808 13.4762C19.7491 15.3578 21.5313 17.7353 22.5119 20.0969C23.0397 21.3662 24.1291 22.3169 25.4585 22.6666L30.1694 23.9059C30.3316 24.0251 30.4535 24.1909 30.5172 24.3812L31.2766 26.6294C31.4735 27.2134 32.1532 27.4722 32.6885 27.1666L34.8822 25.9159C35.3192 25.6675 35.8733 25.7894 36.1647 26.1981L37.7041 28.3591Z" stroke="#3D7A81" stroke-width="1.7" stroke-miterlimit="10" stroke-linecap="round" stroke-linejoin="round"/>
<path d="M19.0631 21.6359L18.4539 20.3379C16.9417 17.1165 13.1504 13.747 9.31424 13.3359C7.78274 13.1718 6.65259 13.0709 6.65259 13.0709V20.2388L19.0631 21.6359Z" stroke="#3D7A81" stroke-width="1.7" stroke-miterlimit="10" stroke-linecap="round" stroke-linejoin="round"/>
<path d="M1 9.15421L6.65294 9.42337V20.2346L1 19.6057" stroke="#3D7A81" stroke-width="1.7" stroke-miterlimit="10" stroke-linecap="round" stroke-linejoin="round"/>
<path d="M1 19.6058L6.65294 20.2347L4.41897 33.6469L1 33.3043" stroke="#3D7A81" stroke-width="1.7" stroke-miterlimit="10" stroke-linecap="round" stroke-linejoin="round"/>
<path d="M1 19.6059L6.65294 20.2347V13.0709L1 12.761" stroke="#3D7A81" stroke-width="1.7" stroke-miterlimit="10" stroke-linecap="round" stroke-linejoin="round"/>
</svg>
