<svg width="48" height="48" viewBox="0 0 48 48" fill="none" xmlns="http://www.w3.org/2000/svg">
<path d="M42.25 11.4999H35.7934C34.8809 10.1439 33.3321 9.24995 31.578 9.24995H28.6545C28.6871 8.97566 28.6955 8.69734 28.6798 8.41536C28.545 6.05916 26.6686 4.16548 24.3153 4.01057C23.0021 3.92415 21.7529 4.36983 20.7967 5.26558C19.8534 6.14851 19.3125 7.39583 19.3125 8.68745C19.3125 8.87678 19.3235 9.06465 19.3458 9.24995H16.6095C14.8553 9.24995 13.3066 10.1439 12.3937 11.4999H5.75C3.57873 11.4999 1.8125 13.2666 1.8125 15.4374V40.0624C1.8125 42.2337 3.57873 43.9999 5.75 43.9999H42.25C44.4213 43.9999 46.1875 42.2337 46.1875 40.0624V15.4374C46.1875 13.2666 44.4209 11.4999 42.25 11.4999ZM16.6091 11.1249H20.5627C20.8791 11.1249 21.1743 10.9656 21.3472 10.7009C21.5204 10.4361 21.5486 10.1021 21.4219 9.81208C21.2662 9.45613 21.1875 9.07783 21.1875 8.68745C21.1875 7.9012 21.5035 7.17207 22.0781 6.63411C22.652 6.09688 23.402 5.82954 24.1919 5.88154C25.5791 5.97273 26.7283 7.13289 26.8077 8.52229C26.833 8.97053 26.7561 9.40449 26.5778 9.81208C26.4514 10.1021 26.4792 10.4361 26.6525 10.7009C26.8257 10.9653 27.1205 11.1249 27.4369 11.1249H31.578C32.7012 11.1249 33.6903 11.7065 34.2623 12.5836C34.2949 12.7923 34.396 12.978 34.5425 13.1168C34.6959 13.4907 34.7809 13.8997 34.7809 14.3282C34.7809 14.7329 34.4517 15.0624 34.0466 15.0624H14.1405C13.7358 15.0624 13.4062 14.7329 13.4062 14.3282C13.4062 13.9495 13.4725 13.5859 13.5937 13.2482C13.8739 13.0864 14.0625 12.7843 14.0625 12.4374C14.0625 12.4221 14.061 12.4067 14.0603 12.3917C14.6459 11.6226 15.5702 11.1249 16.6091 11.1249ZM44.3125 40.0624C44.3125 41.1999 43.3871 42.1249 42.25 42.1249H5.75C4.61255 42.1249 3.6875 41.1999 3.6875 40.0624V15.4374C3.6875 14.3004 4.61255 13.3749 5.75 13.3749H11.6224C11.5635 13.684 11.5312 14.0023 11.5312 14.3282C11.5312 15.767 12.7017 16.9374 14.1405 16.9374H34.0466C35.4855 16.9374 36.6562 15.767 36.6562 14.3282C36.6562 14.0023 36.624 13.684 36.5651 13.3749H42.25C43.3871 13.3749 44.3125 14.3004 44.3125 15.4374V40.0624Z" fill="#3D7A81"/>
<path d="M13.2187 28.25C12.9723 28.25 12.7302 28.3503 12.5559 28.5247C12.3816 28.699 12.2812 28.941 12.2812 29.1875C12.2812 29.434 12.3816 29.676 12.5559 29.8503C12.7302 30.0247 12.9723 30.125 13.2187 30.125C13.4652 30.125 13.7073 30.0247 13.8816 29.8503C14.0559 29.676 14.1562 29.434 14.1562 29.1875C14.1562 28.941 14.0559 28.699 13.8816 28.5247C13.7073 28.3503 13.4652 28.25 13.2187 28.25Z" fill="#3D7A81"/>
<path d="M13.2187 33.5C12.9723 33.5 12.7302 33.6003 12.5559 33.7747C12.3816 33.949 12.2812 34.191 12.2812 34.4375C12.2812 34.684 12.3816 34.926 12.5559 35.1003C12.7302 35.2747 12.9723 35.375 13.2187 35.375C13.4652 35.375 13.7073 35.2747 13.8816 35.1003C14.0559 34.926 14.1562 34.684 14.1562 34.4375C14.1562 34.191 14.0559 33.949 13.8816 33.7747C13.7073 33.6003 13.4652 33.5 13.2187 33.5Z" fill="#3D7A81"/>
<path d="M13.2187 23C12.9723 23 12.7302 23.1003 12.5559 23.2747C12.3816 23.449 12.2812 23.691 12.2812 23.9375C12.2812 24.184 12.3816 24.426 12.5559 24.6003C12.7302 24.7747 12.9723 24.875 13.2187 24.875C13.4652 24.875 13.7073 24.7747 13.8816 24.6003C14.0559 24.426 14.1562 24.184 14.1562 23.9375C14.1562 23.691 14.0559 23.449 13.8816 23.2747C13.7073 23.1003 13.4652 23 13.2187 23Z" fill="#3D7A81"/>
<path d="M34.7812 28.25H17.1562C16.6384 28.25 16.2188 28.6697 16.2188 29.1875C16.2188 29.7053 16.6384 30.125 17.1562 30.125H34.7812C35.2991 30.125 35.7187 29.7053 35.7187 29.1875C35.7187 28.6697 35.2991 28.25 34.7812 28.25Z" fill="#3D7A81"/>
<path d="M34.78 33.5H17.3594C16.8416 33.5 16.4219 33.9197 16.4219 34.4375C16.4219 34.9553 16.8416 35.375 17.3594 35.375H34.78C35.2975 35.375 35.7175 34.9553 35.7175 34.4375C35.7175 33.9197 35.2978 33.5 34.78 33.5Z" fill="#3D7A81"/>
<path d="M34.7812 23H17.1562C16.6384 23 16.2188 23.4197 16.2188 23.9375C16.2188 24.4553 16.6384 24.875 17.1562 24.875H34.7812C35.2991 24.875 35.7187 24.4553 35.7187 23.9375C35.7187 23.4197 35.2991 23 34.7812 23Z" fill="#3D7A81"/>
<path d="M24 9.625C24.2465 9.625 24.4885 9.52466 24.6628 9.35034C24.8372 9.17603 24.9375 8.93433 24.9375 8.6875C24.9375 8.44104 24.8372 8.19934 24.6628 8.02466C24.4885 7.85034 24.2465 7.75 24 7.75C23.7535 7.75 23.5115 7.85034 23.3372 8.02466C23.1628 8.19934 23.0625 8.44104 23.0625 8.6875C23.0625 8.93433 23.1628 9.17603 23.3372 9.35034C23.5115 9.52466 23.7532 9.625 24 9.625Z" fill="#3D7A81"/>
</svg>
